<svg xmlns="http://www.w3.org/2000/svg" viewBox="0 0 226.05 226.05"><defs><style>.cls-1{fill:#4dba70;}</style></defs><title>Asset 1</title><g id="Layer_2" data-name="Layer 2"><g id="_1" data-name="1"><path class="cls-1" d="M87.48,208.38c-6.32,23.57-61.51-8.29-44.25-25.55C26,200.08-5.89,144.89,17.68,138.58c-23.57,6.32-23.57-57.41,0-51.1C-5.89,81.16,26,26,43.23,43.23,26,26,81.16-5.89,87.48,17.68c-6.32-23.57,57.41-23.57,51.1,0,6.32-23.57,61.51,8.29,44.25,25.55C200.08,26,231.95,81.16,208.38,87.48c23.57-6.32,23.57,57.41,0,51.1,23.57,6.32-8.29,61.51-25.55,44.25,17.25,17.25-37.94,49.12-44.25,25.55C144.89,231.95,81.16,231.95,87.48,208.38Z"/></g></g></svg>